<svg xmlns="http://www.w3.org/2000/svg" aria-hidden="true" style="position:absolute;width:0;height:0;overflow:hidden">
  <defs>
    <symbol id="icon-customers-Logo-five" viewBox="0 0 32 32">
      <path d="M8.244 21.038c.076.084.116.19.114.298.004.071-.01.141-.04.206s-.077.123-.136.17a.819.819 0 0 1-.512.137h-.9v-1.887h.882a.818.818 0 0 1 .488.125c.057.043.102.097.132.158s.043.128.039.195a.413.413 0 0 1-.102.289.492.492 0 0 1-.268.148c.119.02.227.077.304.161zm-1.056-.285h.377a.386.386 0 0 0 .24-.063c.028-.023.05-.052.064-.084s.02-.066.017-.101a.224.224 0 0 0-.08-.184.4.4 0 0 0-.247-.064h-.371v.495zm.653.724a.224.224 0 0 0 .089-.191c.002-.036-.005-.073-.021-.106s-.04-.063-.071-.087a.422.422 0 0 0-.256-.068h-.395v.519h.4a.429.429 0 0 0 .253-.065zm2.205.372-.49-.737h-.184v.737H8.95v-1.887h.799a.85.85 0 0 1 .556.16.558.558 0 0 1 .06.781.672.672 0 0 1-.381.192l.522.754h-.459zm-.675-.995h.345c.24 0 .359-.095.359-.286a.261.261 0 0 0-.088-.212.398.398 0 0 0-.271-.076h-.349l.004.574zm2.981.615h-.841l-.149.38h-.442l.772-1.866h.478l.769 1.866h-.442l-.145-.38zm-.113-.285-.307-.796-.307.796h.614zm2.999.665h-.419l-.939-1.283v1.283h-.418v-1.887h.418l.939 1.291v-1.291h.419v1.887zm2.39-.452a.88.88 0 0 1-.379.333 1.345 1.345 0 0 1-.589.119h-.745v-1.887h.745c.204-.005.406.035.589.116.16.073.292.187.379.329a1.01 1.01 0 0 1 0 .99zm-.479-.045c.119-.125.185-.285.185-.45s-.066-.325-.185-.45a.776.776 0 0 0-.524-.16h-.291v1.221h.291a.78.78 0 0 0 .524-.16zM12.614 9.467s5.405 1.837 5.291 4.496v4.496s-5.401-1.838-5.288-4.496l-.002-4.496zm10.106 7.939a7.935 7.935 0 0 1 3.434-1.139v-1.408c-1.42.493-2.625 1.386-3.434 2.547z"/>
      <path d="M22.106 17.83c.836-1.515 2.284-2.683 4.047-3.266v-4.056s-7.698 2.617-7.535 6.403v6.402s.343-.117.883-.336c0-.205 0-.411.025-.619.159-1.758 1.087-3.386 2.58-4.528z"/>
      <path d="M21.374 20.208c.04-.444.131-.883.269-1.311-.93.986-1.492 2.209-1.61 3.498a5.55 5.55 0 0 0-.02.369c.437-.189.946-.425 1.481-.702a5.99 5.99 0 0 1-.12-1.854zm.306.023a5.74 5.74 0 0 0 .095 1.679c2.103-1.133 4.466-2.883 4.375-4.999v-.184c-1.503.151-2.908.743-4.001 1.683a5.791 5.791 0 0 0-.469 1.821z"/>
    </symbol>
    <symbol id="icon-customers-Logo-four" viewBox="0 0 32 32">
      <path d="M7.409 14.005h-.001c-.734 0-1.329.537-1.329 1.198v.001c0 .662.595 1.198 1.329 1.198h.001c.734 0 1.329-.537 1.329-1.198v-.001c0-.662-.595-1.198-1.329-1.198zm9.81-.383c-.002-.919-.408-1.8-1.129-2.45s-1.698-1.016-2.717-1.018c-1.02.002-1.997.368-2.719 1.018s-1.127 1.531-1.129 2.451v5.069s7.693-.773 7.694-5.068v-.001zM3.385 20.355c.002.64.284 1.253.786 1.705s1.181.707 1.891.709c.709-.002 1.389-.257 1.89-.709s.784-1.065.786-1.704v-3.527s-5.353.538-5.353 3.526zm2.676.632c-.139 0-.274-.037-.389-.107s-.205-.168-.258-.284c-.053-.115-.067-.243-.04-.365s.094-.235.192-.324c.098-.088.223-.149.359-.173s.277-.012.405.036.238.129.315.233a.589.589 0 0 1-.087.8c-.065.059-.143.106-.228.138s-.177.048-.269.048v-.002zm4.896-1.136v1.313h-.27v-1.313h.27zm.522.56v.211h-.597v-.211h.597zm.064-.56v.212h-.66v-.212h.66zm1.234.625v.062c0 .1-.014.189-.041.269s-.065.147-.114.203c-.049.055-.108.098-.177.127s-.143.044-.226.044c-.082 0-.158-.015-.226-.044s-.127-.072-.177-.127c-.05-.056-.089-.123-.116-.203s-.041-.169-.041-.269v-.062c0-.1.014-.19.041-.269s.065-.147.114-.203c.05-.056.109-.099.177-.128s.144-.044.226-.044c.083 0 .158.015.226.044s.127.072.177.128c.05.056.088.123.115.203s.041.168.041.269zm-.273.063v-.064c0-.07-.006-.131-.019-.184s-.031-.097-.056-.133a.247.247 0 0 0-.212-.109.255.255 0 0 0-.122.028c-.035.018-.065.045-.089.081s-.042.081-.055.133-.019.114-.019.184v.064c0 .069.006.13.019.184s.031.098.056.134c.025.036.055.063.09.082s.076.028.122.028.086-.009.122-.028.065-.046.089-.082c.024-.037.042-.081.055-.134s.019-.115.019-.184zm1.151.281c0-.023-.004-.044-.011-.063s-.019-.037-.038-.052c-.019-.016-.045-.032-.078-.048s-.077-.032-.131-.049c-.059-.019-.116-.041-.169-.065s-.1-.052-.141-.084c-.04-.032-.072-.07-.096-.113s-.034-.092-.034-.149c0-.055.012-.104.036-.149s.058-.084.101-.115c.043-.032.094-.057.153-.075s.125-.026.196-.026c.097 0 .181.017.253.052s.128.083.168.143c.04.061.06.13.06.208h-.269c0-.038-.008-.072-.024-.101s-.04-.053-.072-.069a.256.256 0 0 0-.121-.025c-.047 0-.086.007-.117.022s-.055.033-.07.057a.136.136 0 0 0-.007.139c.011.018.028.035.05.05s.05.03.082.044c.032.014.07.027.113.041.072.022.134.046.188.073s.1.057.137.091.064.072.083.114a.354.354 0 0 1 .028.145c0 .057-.011.108-.033.153s-.054.083-.096.114-.092.055-.151.071-.123.024-.196.024c-.065 0-.129-.008-.192-.025s-.12-.044-.172-.078a.379.379 0 0 1-.169-.325h.271c0 .041.006.075.019.104s.03.051.053.069c.023.017.051.03.083.038s.068.012.106.012c.047 0 .085-.007.115-.02s.053-.032.068-.055a.143.143 0 0 0 .023-.079zm1.042-.969v1.313h-.27v-1.313h.27zm.404 0v.212H14.03v-.212h1.071zm1.034 1.101v.211h-.699v-.211h.699zm-.61-1.101v1.313h-.27v-1.313h.27zm.519.534v.206h-.608v-.206h.608zm.09-.534v.212h-.698v-.212h.698zm.159 0h.489c.1 0 .187.015.259.045s.129.075.168.133.059.131.059.217c0 .07-.012.131-.036.181s-.057.092-.1.125a.527.527 0 0 1-.151.079l-.086.045h-.425l-.002-.211h.316c.047 0 .087-.008.118-.025s.055-.04.07-.07a.22.22 0 0 0 .024-.105c0-.042-.008-.078-.023-.109s-.039-.054-.071-.07a.267.267 0 0 0-.12-.024h-.219v1.101h-.27V19.85zm.734 1.312-.299-.585.286-.002.303.574v.013h-.289zm1.42-.468h-.334v-.211h.334c.052 0 .094-.008.126-.025s.056-.041.071-.072.023-.065.023-.104c0-.039-.008-.075-.023-.109s-.039-.061-.071-.081a.237.237 0 0 0-.126-.031h-.241v1.101h-.27V19.85h.511c.103 0 .191.019.264.056s.13.087.169.152.059.139.059.223c0 .085-.02.158-.059.22s-.096.11-.169.143a.622.622 0 0 1-.264.05zm1.559.257v.211h-.699v-.211h.699zm-.61-1.101v1.313h-.27v-1.313h.27zm.519.534v.206h-.608v-.206h.608zm.09-.534v.212h-.698v-.212h.698zm.764 0v1.313h-.27v-1.313h.27zm.404 0v.212h-1.071v-.212h1.071zm1.034 1.101v.211h-.699v-.211h.699zm-.61-1.101v1.313h-.27v-1.313h.27zm.519.534v.206h-.608v-.206h.608zm.091-.534v.212h-.698v-.212h.698zm.158 0h.489c.1 0 .187.015.259.045s.129.075.168.133.059.131.059.217c0 .07-.012.131-.036.181s-.057.092-.1.125a.527.527 0 0 1-.151.079l-.086.045h-.425l-.002-.211h.316c.047 0 .087-.008.118-.025s.055-.04.07-.07a.22.22 0 0 0 .024-.105c0-.042-.008-.078-.023-.109s-.039-.054-.071-.07a.267.267 0 0 0-.12-.024h-.219v1.101h-.27V19.85zm.734 1.312-.299-.585.286-.002.303.574v.013H23.1zm1.132-.343c0-.023-.004-.044-.011-.063s-.019-.037-.038-.052c-.019-.016-.045-.032-.078-.048s-.077-.032-.131-.049c-.059-.019-.116-.041-.169-.065s-.1-.052-.141-.084c-.04-.032-.072-.07-.096-.113s-.034-.092-.034-.149c0-.055.012-.104.036-.149s.058-.084.101-.115c.043-.032.094-.057.153-.075s.125-.026.196-.026c.097 0 .181.017.253.052s.128.083.168.143c.04.061.06.13.06.208h-.269c0-.038-.008-.072-.024-.101s-.04-.053-.072-.069a.256.256 0 0 0-.121-.025c-.047 0-.086.007-.117.022s-.055.033-.07.057a.136.136 0 0 0-.007.139c.011.018.028.035.05.05s.05.03.082.044c.032.014.07.027.113.041.072.022.134.046.188.073s.1.057.137.091.064.072.083.114a.354.354 0 0 1 .028.145c0 .057-.011.108-.033.153s-.054.083-.096.114-.092.055-.151.071-.123.024-.196.024c-.065 0-.129-.008-.192-.025s-.12-.044-.172-.078a.379.379 0 0 1-.169-.325h.271c0 .041.006.075.019.104s.03.051.053.069c.023.017.051.03.083.038s.068.012.106.012c.047 0 .085-.007.115-.02s.053-.032.068-.055a.143.143 0 0 0 .023-.079z"/>
    </symbol>
    <symbol id="icon-customers-Logo-one" viewBox="0 0 32 32">
      <path d="m11.692 9.538 2.156 2.054-4.002-.002v9.967h10.462v-3.811l2.154 2.052V9.538H11.693zm8.521 7.967-6.114-5.825h6.114v5.825zm-1.898 2.594h-6.813v-6.703h.482v6.249h6.332v.454zm-5.455 3.304-.254-.522h-.21l.368.691v.403h.19v-.403l.368-.691h-.209l-.254.522zm.936-.522h.045l.413 1.094h-.198l-.088-.256h-.423l-.088.256h-.198l.412-1.094h.126zm-.2.688h.32l-.16-.464-.16.464zm1.322-.181a.547.547 0 0 1-.089-.138.296.296 0 0 1 .012-.255.235.235 0 0 1 .1-.095.315.315 0 0 1 .151-.034c.056 0 .103.011.143.034s.072.051.093.088a.23.23 0 0 1 .033.12c0 .035-.006.066-.019.095s-.03.055-.052.078a.507.507 0 0 1-.077.067l-.076.055.217.256a.43.43 0 0 0 .047-.204h.156a.672.672 0 0 1-.016.151.473.473 0 0 1-.08.18l.16.189h-.21l-.064-.075a.407.407 0 0 1-.112.061.502.502 0 0 1-.359-.011.293.293 0 0 1-.166-.27c0-.045.009-.084.028-.117s.044-.066.076-.095c.03-.027.063-.054.101-.081zm.089.11-.023.016a.278.278 0 0 0-.059.062.182.182 0 0 0-.011.185.146.146 0 0 0 .061.062.2.2 0 0 0 .098.023.272.272 0 0 0 .121-.028.398.398 0 0 0 .056-.034l-.243-.286zm.044-.2.067-.045c.032-.021.054-.042.068-.062s.02-.046.02-.077c0-.026-.01-.05-.03-.072s-.048-.033-.085-.033c-.026 0-.047.006-.065.018s-.031.027-.04.047a.147.147 0 0 0-.013.064c0 .023.006.046.017.07s.027.048.047.074l.013.016zm1.913.321h-.188c-.006.048-.017.088-.035.121s-.042.057-.076.074a.283.283 0 0 1-.13.026.212.212 0 0 1-.191-.1c-.02-.032-.035-.07-.045-.115s-.014-.095-.014-.15v-.092c0-.058.005-.11.016-.155s.027-.084.049-.115a.217.217 0 0 1 .193-.095c.053 0 .095.009.128.027s.057.043.074.077a.351.351 0 0 1 .033.121h.188c-.008-.073-.028-.138-.062-.195s-.08-.101-.14-.133-.134-.048-.221-.048c-.069 0-.13.012-.186.036s-.101.059-.14.104c-.039.045-.069.099-.09.163s-.031.135-.031.213v.091c0 .079.01.15.03.213s.05.118.089.163a.407.407 0 0 0 .322.14c.088 0 .163-.016.225-.048s.109-.076.143-.131a.434.434 0 0 0 .06-.192zm1.044-.161v-.06c0-.083-.011-.157-.033-.222s-.052-.121-.092-.168c-.04-.047-.088-.082-.143-.106s-.117-.037-.185-.037c-.067 0-.128.012-.184.037s-.103.059-.143.106c-.04.046-.071.102-.093.168s-.033.139-.033.222v.06c0 .083.011.157.033.222s.054.121.095.168a.41.41 0 0 0 .327.142.405.405 0 0 0 .328-.142c.04-.046.071-.102.092-.168s.032-.14.032-.222zm-.189-.061v.062c0 .061-.006.115-.018.162s-.029.087-.051.119c-.023.032-.05.056-.083.073s-.07.024-.112.024c-.042 0-.079-.008-.111-.024s-.061-.041-.084-.073c-.023-.033-.041-.072-.053-.119s-.018-.101-.018-.162v-.062c0-.061.006-.115.018-.162s.029-.086.052-.118a.227.227 0 0 1 .194-.097c.041 0 .079.008.112.025.033.016.061.04.083.072s.04.071.052.118c.012.047.018.1.018.162z"/>
    </symbol>
    <symbol id="icon-customers-Logo-six" viewBox="0 0 32 32">
      <path d="M16.291 15.894a.559.559 0 0 1-.115-.379v-.55c0-.169.038-.297.115-.384s.208-.131.394-.131c.175 0 .299.037.373.112.08.095.119.212.11.329v.129h-.313v-.131a.683.683 0 0 0-.009-.128.123.123 0 0 0-.045-.076.185.185 0 0 0-.113-.03.189.189 0 0 0-.119.031.145.145 0 0 0-.052.084.62.62 0 0 0-.012.136v.668a.341.341 0 0 0 .04.187c.016.02.037.036.063.045s.053.014.081.011c.04.003.08-.008.111-.03a.133.133 0 0 0 .047-.081.749.749 0 0 0 .01-.134v-.135h.313v.124a.504.504 0 0 1-.108.346c-.072.082-.195.123-.375.123s-.316-.044-.394-.134zm1.305.006c-.079-.086-.119-.21-.119-.376v-.579c0-.163.04-.287.119-.371s.211-.126.397-.125c.184 0 .316.042.395.125s.119.208.119.371v.579c0 .163-.04.289-.121.375s-.211.129-.394.129c-.182 0-.317-.044-.397-.129zm.542-.139a.332.332 0 0 0 .038-.171v-.708a.311.311 0 0 0-.037-.168c-.016-.02-.038-.036-.064-.046s-.055-.013-.083-.01c-.028-.003-.057 0-.083.01s-.048.026-.064.046a.31.31 0 0 0-.038.168v.712a.311.311 0 0 0 .038.171c.018.018.041.033.066.042s.053.015.081.015c.028 0 .055-.005.081-.015s.048-.024.066-.042v-.003zm.745-1.295h.337l.254 1.068.259-1.068h.328l.033 1.541h-.243l-.026-1.071-.25 1.071h-.194l-.259-1.075-.024 1.075h-.245l.03-1.541zm1.59 0h.525c.302 0 .454.146.454.438 0 .279-.159.419-.478.419h-.179v.685h-.324l.002-1.541zm.449.658a.252.252 0 0 0 .178-.048.25.25 0 0 0 .047-.174.474.474 0 0 0-.015-.14c-.005-.015-.013-.03-.024-.042s-.025-.023-.041-.031a.339.339 0 0 0-.145-.025h-.126v.46h.126zm.998-.658h.348l.357 1.541h-.302l-.071-.355h-.311l-.073.355h-.307l.357-1.541zm.297 1.007-.121-.647-.121.647h.242zm.697-1.007h.227l.434.879v-.879h.269v1.541h-.216l-.437-.918v.918h-.278l.001-1.541zm1.561.953-.361-.951h.304l.22.611.207-.611h.298l-.357.951v.588h-.311v-.588zm-7.683 1.262v.081h-.265v.626h-.111v-.626h-.266v-.081h.641zm.829.706h-.086a.042.042 0 0 1-.038-.023l-.076-.168h-.367l-.077.168a.039.039 0 0 1-.012.019.04.04 0 0 1-.024.007h-.086l.324-.707h.113l.328.704zm-.537-.262h.306l-.13-.288a.412.412 0 0 1-.024-.067l-.012.038-.012.03-.128.287zm1.096.193a.434.434 0 0 0 .203-.038v-.159h-.13l-.009-.001-.008-.004-.005-.006a.019.019 0 0 1-.002-.007v-.054h.252v.271a.5.5 0 0 1-.218.073.747.747 0 0 1-.095.004.525.525 0 0 1-.163-.026.397.397 0 0 1-.13-.074.324.324 0 0 1-.114-.259.324.324 0 0 1 .113-.26.377.377 0 0 1 .13-.073.536.536 0 0 1 .174-.026.506.506 0 0 1 .232.052.32.32 0 0 1 .056.037l-.031.044c-.002.004-.006.007-.011.01s-.01.004-.015.004a.036.036 0 0 1-.02-.006c-.01-.004-.02-.01-.032-.017-.014-.007-.028-.014-.043-.019a.377.377 0 0 0-.142-.022.376.376 0 0 0-.125.02.266.266 0 0 0-.095.056.238.238 0 0 0-.06.088.331.331 0 0 0 0 .236.244.244 0 0 0 .065.089.291.291 0 0 0 .095.056.368.368 0 0 0 .128.014zm1.034-.011h.354v.081h-.462v-.707h.111l-.003.626zm.723.08h-.111v-.707h.111v.707zm.412-.703a.07.07 0 0 1 .017.013l.474.533v-.552h.097v.71h-.056c-.008.001-.017-.001-.024-.004s-.013-.008-.018-.013l-.473-.532v.55h-.093v-.707h.058c.006 0 .013.001.018.003zm1.404-.003v.078h-.393v.233h.318v.075h-.318v.241h.393v.078h-.507v-.705h.507zm-11.621-4.365 4.924 1.206v4.228l-4.924-1.206v-4.228zm-.315-.36v4.794l5.555 1.361v-4.793l-5.555-1.362z"/>
      <path d="m12.794 20.337-5.556-1.363V14.18l5.556 1.362v4.794z"/>
      <path d="m9.909 12.262 4.86 1.191-2.067 1.784-4.861-1.192 2.067-1.783zm-.092-.306-2.578 2.225 5.556 1.362 2.578-2.225-5.555-1.362zm3.29 8.111 2.265-1.955-2.265-.556v2.511z"/>
    </symbol>
    <symbol id="icon-customers-Logo-three" viewBox="0 0 32 32">
      <path d="M11.326 22.53c.005 0 .01.001.014.003s.009.004.012.007l.068.064a.556.556 0 0 1-.191.121.752.752 0 0 1-.271.044.71.71 0 0 1-.255-.041.556.556 0 0 1-.192-.115.508.508 0 0 1-.124-.177.576.576 0 0 1-.043-.227.523.523 0 0 1 .179-.405.593.593 0 0 1 .204-.115.83.83 0 0 1 .506-.004c.067.025.129.06.183.102l-.057.068a.053.053 0 0 1-.014.012c-.007.004-.015.006-.023.005s-.017-.003-.025-.007l-.031-.018-.042-.023a.484.484 0 0 0-.235-.048.571.571 0 0 0-.189.03.407.407 0 0 0-.279.402.416.416 0 0 0 .129.319.379.379 0 0 0 .141.084c.055.02.115.029.175.029a.907.907 0 0 0 .104-.006.4.4 0 0 0 .224-.094.06.06 0 0 1 .032-.012zm1.962-.321a.538.538 0 0 1-.046.226c-.028.065-.071.125-.128.175s-.125.089-.201.115a.842.842 0 0 1-.516 0 .619.619 0 0 1-.2-.115.501.501 0 0 1-.129-.177.581.581 0 0 1 0-.452.541.541 0 0 1 .129-.178.61.61 0 0 1 .2-.111.827.827 0 0 1 .516 0c.075.026.144.065.2.115s.1.11.128.175c.031.073.047.15.046.227zm-.178 0a.487.487 0 0 0-.032-.181.379.379 0 0 0-.235-.222.6.6 0 0 0-.375 0 .395.395 0 0 0-.144.086.365.365 0 0 0-.092.136.527.527 0 0 0 0 .363.369.369 0 0 0 .236.221.616.616 0 0 0 .375 0 .379.379 0 0 0 .235-.221.453.453 0 0 0 .032-.181zm1.517.191.018.041.02-.041.022-.04.434-.674c.008-.012.016-.019.025-.021a.147.147 0 0 1 .036-.004h.128v1.096h-.152v-.878l-.437.684c-.006.01-.014.019-.026.025s-.024.009-.037.009h-.025c-.013 0-.026-.003-.037-.009s-.02-.015-.025-.025l-.449-.688v.88h-.147v-1.094h.128a.11.11 0 0 1 .036.004.045.045 0 0 1 .024.021l.443.675a.216.216 0 0 1 .022.039zm1.633-.055v.411h-.17v-1.095h.379a.823.823 0 0 1 .211.024.423.423 0 0 1 .149.068.28.28 0 0 1 .085.107c.02.045.03.092.029.14a.31.31 0 0 1-.031.14.31.31 0 0 1-.092.11.446.446 0 0 1-.15.073.703.703 0 0 1-.205.025l-.206-.003zm0-.117h.206a.488.488 0 0 0 .132-.017.291.291 0 0 0 .095-.047.194.194 0 0 0 .058-.073.199.199 0 0 0 .02-.092c.002-.03-.004-.061-.017-.089s-.033-.054-.059-.075a.374.374 0 0 0-.228-.059h-.206v.451zm2.283.529h-.134a.066.066 0 0 1-.037-.01.074.074 0 0 1-.022-.025l-.116-.265h-.58l-.12.265a.063.063 0 0 1-.021.025.07.07 0 0 1-.038.011h-.134l.51-1.097h.177l.516 1.097zm-.841-.407h.479l-.202-.446a.799.799 0 0 1-.038-.103l-.02.057a.54.54 0 0 1-.019.046l-.2.446zm1.575-.684c.01.005.019.011.025.02l.743.827v-.851h.152v1.097h-.085a.08.08 0 0 1-.062-.027l-.742-.826v.853h-.152v-1.097h.09c.011 0 .021.002.031.005zm2.172.655v.435h-.17v-.435l-.47-.66h.152a.068.068 0 0 1 .037.009.092.092 0 0 1 .023.025l.294.426.031.051a.368.368 0 0 1 .021.046l.022-.047a.36.36 0 0 1 .029-.05l.29-.429c.006-.009.014-.016.022-.023a.058.058 0 0 1 .037-.011h.154l-.471.663zm-6.906-2.5c.074.008.149.015.224.02 1.146-.438 2.115-1.155 2.787-2.061s1.016-1.961.99-3.034l-1.263-1.079c.257 1.142.137 2.322-.347 3.409s-1.312 2.037-2.391 2.745z"/>
      <path d="m14.092 19.77.034.006c1.154-.705 2.034-1.69 2.525-2.827s.573-2.374.233-3.55l-1.799-1.537c.728 1.263 1.02 2.677.845 4.077s-.813 2.728-1.838 3.831zm6.1-3.757c-.306 1.178-1.048 2.241-2.117 3.03a6.77 6.77 0 0 1-1.006.617c.87-.219 1.67-.605 2.338-1.129s1.186-1.173 1.514-1.895l-.73-.623z"/>
      <path d="m19.906 15.839-1.039-.887c-.02 1.012-.357 2.001-.975 2.864s-1.496 1.569-2.542 2.044h.005c.233 0 .466-.012.697-.036.977-.341 1.841-.883 2.513-1.578s1.133-1.522 1.34-2.406zm-5.664-4.625-1.239-1.06c-1.108.366-2.061 1.009-2.734 1.845s-1.035 1.826-1.038 2.841c.004 1.121.446 2.209 1.255 3.092s1.94 1.509 3.213 1.781c1.137-1.183 1.802-2.645 1.9-4.173s-.378-3.043-1.357-4.325zm8.527 4.462c-.005-1.33-.625-2.605-1.726-3.546s-2.593-1.471-4.15-1.475a6.685 6.685 0 0 0-2.104.335l7.587 6.482c.26-.573.393-1.182.392-1.797z"/>
    </symbol>
    <symbol id="icon-customers-Logo-two" viewBox="0 0 32 32">
      <path d="M15.42 9.211h-.042c-.065-.004-.129-.005-.194-.007h-.14a7.717 7.717 0 0 0-.399.009 8.726 8.726 0 0 0-3.236.825l-.133.064v6.813l.311-.106c.273-.094.564-.178.866-.257a10.57 10.57 0 0 1 2.491-.331v.895c-.111.001-.22.004-.328.009h-.026a9.918 9.918 0 0 0-1.916.294 9.722 9.722 0 0 0-2.283.89V9.572a9.123 9.123 0 0 1 2.395-.974 9.198 9.198 0 0 1 2.257-.291h.132c.157.004.311.011.455.022a6.59 6.59 0 0 1 1.125.179v.881a6.911 6.911 0 0 0-1.09-.164l-.022-.002c-.076-.006-.152-.013-.223-.013zm1.55.9c.195.015.398.022.602.022a9.687 9.687 0 0 0 2.373-.304 9.802 9.802 0 0 0 2.282-.89v8.582a9.198 9.198 0 0 1-2.396.974 9.197 9.197 0 0 1-2.257.29 6.859 6.859 0 0 1-1.712-.202V9.946a7.141 7.141 0 0 0 1.108.166zm4.368.067-.311.105c-.286.096-.575.182-.866.259-.845.217-1.714.329-2.587.332-.203 0-.39-.005-.571-.017l-.248-.016v7.008l.213.019c.198.017.402.026.607.026a8.243 8.243 0 0 0 2.037-.264 8.518 8.518 0 0 0 1.592-.572l.133-.064v-6.815zM10.996 21.296a.464.464 0 0 0-.346-.14.508.508 0 0 0-.356.14.509.509 0 0 0-.136.35v1.167a.545.545 0 0 0 .046.239c.028.06.067.113.117.157a.409.409 0 0 0 .16.083.64.64 0 0 0 .174.024.508.508 0 0 0 .344-.149.5.5 0 0 0 .139-.343v-.131h-.305v.104a.262.262 0 0 1-.018.104.196.196 0 0 1-.044.066.197.197 0 0 1-.064.034.2.2 0 0 1-.064.011.157.157 0 0 1-.143-.063.27.27 0 0 1-.04-.157v-1.088a.374.374 0 0 1 .037-.174.156.156 0 0 1 .15-.071.161.161 0 0 1 .136.066c.034.045.052.1.051.157v.101h.302v-.119a.546.546 0 0 0-.139-.368zm1.813-.013a.539.539 0 0 0-.529-.095.535.535 0 0 0-.161.095.46.46 0 0 0-.118.164.53.53 0 0 0-.044.226v1.12a.544.544 0 0 0 .044.229c.028.06.068.114.118.156a.487.487 0 0 0 .161.099.538.538 0 0 0 .364 0 .504.504 0 0 0 .28-.255.547.547 0 0 0 .044-.229v-1.12a.507.507 0 0 0-.159-.39zm-.143 1.509a.202.202 0 0 1-.061.162c-.04.034-.091.052-.144.052s-.103-.019-.144-.052a.204.204 0 0 1-.061-.162v-1.12a.202.202 0 0 1 .061-.162c.04-.034.091-.052.144-.052s.103.019.144.052c.021.021.038.046.049.074s.015.058.012.088v1.12zm2.524.5v-2.12h-.293l-.385 1.122h-.005l-.388-1.122h-.29v2.12h.303v-1.289h.005l.297.912h.151l.299-.912h.005v1.289h.303zm1.72-1.971a.427.427 0 0 0-.171-.116.683.683 0 0 0-.22-.033h-.45v2.12h.302v-.828h.156a.557.557 0 0 0 .272-.058.438.438 0 0 0 .166-.162.505.505 0 0 0 .069-.185c.012-.08.017-.16.016-.241a1.186 1.186 0 0 0-.03-.303.454.454 0 0 0-.111-.195zm-.155.646a.263.263 0 0 1-.028.11.165.165 0 0 1-.078.074.318.318 0 0 1-.142.027h-.138v-.721h.156a.288.288 0 0 1 .136.027.173.173 0 0 1 .071.078.282.282 0 0 1 .026.118v.141c0 .049.003.1 0 .146h-.003zm1.586-.794h-.248l-.467 2.12h.302l.089-.455h.412l.089.455h.302l-.479-2.12zm-.279 1.375.149-.768h.005l.148.768h-.302zm2.23-.099h-.005l-.456-1.277h-.29v2.12h.302v-1.275h.006l.462 1.275h.284v-2.12h-.302v1.277zm1.846-1.276-.243.843h-.006l-.243-.843h-.32l.415 1.224v.896h.302v-.896l.415-1.224h-.32zm-11.984 2.718h.146v.408h.099v-.408h.145v-.084h-.389v.084zm1.223-.084-.191.492h.105l.04-.112h.196l.042.112h.107l-.195-.492h-.105zm-.015.297.067-.182.067.182h-.134zm1.225.014h.114v.063a.183.183 0 0 1-.117.041.125.125 0 0 1-.104-.047.209.209 0 0 1-.037-.128c0-.11.047-.164.142-.164.025-.003.05.004.07.018s.035.036.041.06l.097-.019c-.021-.096-.09-.145-.209-.145a.248.248 0 0 0-.172.063c-.025.024-.044.054-.056.087s-.017.068-.015.103a.272.272 0 0 0 .063.185.24.24 0 0 0 .187.072.299.299 0 0 0 .209-.078v-.194h-.213v.083zm1.235-.311h-.1v.492h.345v-.084h-.245v-.408zm1.045 0h-.1v.492h.1v-.492zm1.021.329-.202-.329h-.097v.492h.093v-.322l.198.322h.099v-.492h-.091v.329zm.923-.054h.245v-.084h-.245v-.108h.264v-.084h-.363v.492h.374v-.084h-.274v-.133zm2.239-.081h-.194v-.194h-.099v.492h.099v-.215h.194v.215h.099v-.492h-.099v.194zm.929.081h.246v-.084h-.246v-.108h.265v-.084h-.363v.492h.373v-.084h-.274v-.133zm1.259 0c.086-.013.129-.059.129-.137a.116.116 0 0 0-.048-.109.287.287 0 0 0-.144-.029h-.209v.492h.099v-.206h.019a.128.128 0 0 1 .061.011.11.11 0 0 1 .035.036l.107.157h.118l-.06-.096a.342.342 0 0 0-.109-.118zm-.1-.068h-.073v-.124h.078a.242.242 0 0 1 .1.012c.007.006.013.014.017.023s.005.018.005.028c0 .01-.003.019-.008.027s-.011.016-.019.021a.283.283 0 0 1-.1.012zm1.05.068h.245v-.084h-.245v-.108h.265v-.084h-.364v.492h.374v-.084h-.274v-.133z"/>
    </symbol>
    <symbol id="icon-diligence-diagram" viewBox="0 0 32 32">
      <path fill="#4d5ae5" style="fill: var(--color2, #4d5ae5)" d="M14.926 14.965h1.066v4.798h-1.066v-4.797z"></path>
      <path fill="#4d5ae5" style="fill: var(--color2, #4d5ae5)" d="M19.19 17.097h1.066v2.665h-1.066v-2.665z"></path>
      <path fill="#4d5ae5" style="fill: var(--color2, #4d5ae5)" d="M10.661 18.696h1.066v1.066h-1.066v-1.066z"></path>
      <path fill="#4d5ae5" style="fill: var(--color2, #4d5ae5)" d="M7.463 18.163h1.066v1.599h-1.066v-1.599z"></path>
      <path fill="#2e2f42" style="fill: var(--color1, #2e2f42)" d="M1.599 28.291h25.587c0.883 0 1.599-0.716 1.599-1.599v-2.132c0-0.883-0.716-1.599-1.599-1.599h-0.533v-13.293l3.028-2.868c0.703 0.346 1.553 0.136 2.013-0.499s0.396-1.508-0.152-2.068-1.42-0.644-2.065-0.198c-0.644 0.446-0.873 1.292-0.542 2.002l-2.281 2.163v-1.23c0-0.883-0.716-1.599-1.599-1.599h-21.322c-0.883 0-1.599 0.716-1.599 1.599v15.992h-0.533c-0.883 0-1.599 0.716-1.599 1.599v2.132c0 0.883 0.716 1.599 1.599 1.599zM30.384 4.837c0.294 0 0.533 0.239 0.533 0.533s-0.239 0.533-0.533 0.533c-0.294 0-0.533-0.239-0.533-0.533s0.239-0.533 0.533-0.533zM3.198 6.969c0-0.294 0.239-0.533 0.533-0.533h21.322c0.294 0 0.533 0.239 0.533 0.533v2.239l-1.066 1.013v-2.186c0-0.294-0.239-0.533-0.533-0.533h-19.19c-0.294 0-0.533 0.239-0.533 0.533v13.326c0 0.294 0.239 0.533 0.533 0.533h19.19c0.294 0 0.533-0.239 0.533-0.533v-9.674l1.066-1.010v12.284h-22.388v-15.992zM7.996 13.899c-0.721-0.002-1.354 0.478-1.546 1.174s0.105 1.433 0.725 1.801c0.62 0.368 1.41 0.276 1.928-0.226l1.853 0.93c0.215 0.108 0.476 0.057 0.636-0.123l3.939-4.431 3.872 2.901c0.208 0.156 0.498 0.139 0.686-0.039l3.365-3.188v8.131h-18.124v-12.26h18.124v2.66l-3.771 3.572-3.904-2.927c-0.222-0.166-0.534-0.135-0.718 0.072l-3.993 4.493-1.493-0.746c0.011-0.064 0.018-0.129 0.020-0.193 0-0.883-0.716-1.599-1.599-1.599zM8.529 15.498c0 0.294-0.239 0.533-0.533 0.533s-0.533-0.239-0.533-0.533c0-0.294 0.239-0.533 0.533-0.533s0.533 0.239 0.533 0.533zM11.727 24.027h5.331v0.533c0 0.294-0.239 0.533-0.533 0.533h-4.264c-0.294 0-0.533-0.239-0.533-0.533v-0.533zM1.066 24.56c0-0.294 0.239-0.533 0.533-0.533h9.062v0.533c0 0.883 0.716 1.599 1.599 1.599h4.264c0.883 0 1.599-0.716 1.599-1.599v-0.533h9.062c0.294 0 0.533 0.239 0.533 0.533v2.132c0 0.294-0.239 0.533-0.533 0.533h-25.587c-0.294 0-0.533-0.239-0.533-0.533v-2.132z"></path>
    </symbol>
    <symbol id="icon-footer-facebook" viewBox="0 0 32 32">
      <path d="M21.329 5.313h2.921V.225C23.746.156 22.013 0 19.994 0c-4.212 0-7.097 2.649-7.097 7.519V12H8.249v5.688h4.648V32h5.699V17.689h4.46l.708-5.688h-5.169V8.082c.001-1.644.444-2.769 2.735-2.769z"/>
    </symbol>
    <symbol id="icon-footer-instagram" viewBox="0 0 32 32">
      <path d="M31.969 9.408c-.075-1.7-.35-2.869-.744-3.882a7.793 7.793 0 0 0-1.851-2.838A7.867 7.867 0 0 0 26.542.844C25.523.45 24.361.175 22.66.1 20.947.019 20.403 0 16.059 0s-4.888.019-6.595.094c-1.7.075-2.869.35-3.882.744a7.803 7.803 0 0 0-2.838 1.85A7.867 7.867 0 0 0 .9 5.52C.506 6.539.231 7.702.156 9.402c-.081 1.713-.1 2.257-.1 6.601s.019 4.888.094 6.595c.075 1.7.35 2.869.744 3.882a7.895 7.895 0 0 0 1.85 2.838 7.867 7.867 0 0 0 2.832 1.844c1.019.394 2.182.669 3.882.744 1.706.075 2.25.094 6.595.094s4.888-.019 6.595-.094c1.7-.075 2.869-.35 3.882-.744a8.181 8.181 0 0 0 4.682-4.682c.394-1.019.669-2.182.744-3.882.075-1.707.094-2.25.094-6.595s-.006-4.888-.081-6.595zm-2.882 13.065c-.069 1.563-.331 2.407-.55 2.969a5.31 5.31 0 0 1-3.038 3.038c-.563.219-1.413.481-2.969.55-1.688.075-2.194.094-6.464.094s-4.782-.019-6.464-.094c-1.563-.069-2.407-.331-2.969-.55a4.926 4.926 0 0 1-1.838-1.194 4.974 4.974 0 0 1-1.194-1.838c-.219-.563-.481-1.413-.55-2.969-.075-1.688-.094-2.194-.094-6.464s.019-4.782.094-6.464c.069-1.563.331-2.407.55-2.969a4.868 4.868 0 0 1 1.2-1.838A4.974 4.974 0 0 1 6.639 3.55c.563-.219 1.413-.481 2.969-.55 1.688-.075 2.194-.094 6.464-.094 4.276 0 4.782.019 6.464.094 1.563.069 2.407.331 2.969.55a4.914 4.914 0 0 1 1.838 1.194 4.974 4.974 0 0 1 1.194 1.838c.219.563.481 1.413.55 2.969.075 1.688.094 2.194.094 6.464s-.019 4.77-.094 6.458z"/>
      <path d="M16.059 7.783c-4.538 0-8.22 3.682-8.22 8.22s3.682 8.22 8.22 8.22c4.539 0 8.22-3.682 8.22-8.22s-3.682-8.22-8.22-8.22zm0 13.552a5.333 5.333 0 0 1 0-10.664 5.332 5.332 0 0 1 0 10.664zM26.524 7.458a1.919 1.919 0 1 1-3.838 0 1.919 1.919 0 0 1 3.838 0z"/>
    </symbol>
    <symbol id="icon-footer-linkedin" viewBox="0 0 32 32">
      <path d="M31.992 32v-.001H32V20.263c0-5.741-1.236-10.164-7.948-10.164-3.227 0-5.392 1.771-6.276 3.449h-.093v-2.913h-6.364v21.364h6.627V21.42c0-2.785.528-5.479 3.977-5.479 3.399 0 3.449 3.179 3.449 5.657v10.401h6.62zM.528 10.636h6.635V32H.528V10.636zM3.843 0C1.722 0 0 1.721 0 3.843s1.721 3.879 3.843 3.879c2.121 0 3.843-1.757 3.843-3.879A3.846 3.846 0 0 0 3.843 0z"/>
    </symbol>
    <symbol id="icon-footer-twitter" viewBox="0 0 32 32">
      <path d="M32 6.078c-1.19.522-2.458.868-3.78 1.036a6.523 6.523 0 0 0 2.886-3.626 13.11 13.11 0 0 1-4.16 1.588A6.574 6.574 0 0 0 22.154 3c-3.632 0-6.556 2.948-6.556 6.562 0 .52.044 1.02.152 1.496-5.454-.266-10.28-2.88-13.522-6.862a6.605 6.605 0 0 0-.898 3.316 6.57 6.57 0 0 0 2.914 5.452 6.479 6.479 0 0 1-2.964-.808v.072c0 3.188 2.274 5.836 5.256 6.446a6.548 6.548 0 0 1-1.72.216 5.8 5.8 0 0 1-1.242-.112c.85 2.598 3.262 4.508 6.13 4.57a13.182 13.182 0 0 1-8.134 2.798c-.538 0-1.054-.024-1.57-.09A18.469 18.469 0 0 0 10.064 29c12.072 0 18.672-10 18.672-18.668 0-.29-.01-.57-.024-.848A13.087 13.087 0 0 0 32 6.078z"/>
    </symbol>
    <symbol id="icon---facebook" viewBox="0 0 32 32">
      <path d="M21.329 5.313h2.921V.225C23.746.156 22.013 0 19.994 0c-4.212 0-7.097 2.649-7.097 7.519V12H8.249v5.688h4.648V32h5.699V17.689h4.46l.708-5.688h-5.169V8.082c.001-1.644.444-2.769 2.735-2.769z"/>
    </symbol>
    <symbol id="icon-our-team-instagram" viewBox="0 0 32 32">
      <path d="M31.969 9.408c-.075-1.7-.35-2.869-.744-3.882a7.803 7.803 0 0 0-1.85-2.838A7.867 7.867 0 0 0 26.543.844C25.524.45 24.361.175 22.661.1 20.948.019 20.404 0 16.06 0s-4.888.019-6.595.094c-1.7.075-2.869.35-3.882.744a7.803 7.803 0 0 0-2.838 1.85A7.867 7.867 0 0 0 .901 5.52C.507 6.539.232 7.702.157 9.402c-.081 1.713-.1 2.257-.1 6.601s.019 4.888.094 6.595c.075 1.7.35 2.869.744 3.882a7.895 7.895 0 0 0 1.85 2.838 7.867 7.867 0 0 0 2.832 1.844c1.019.394 2.182.669 3.882.744 1.706.075 2.25.094 6.595.094s4.888-.018 6.595-.094c1.7-.075 2.869-.35 3.882-.744a8.181 8.181 0 0 0 4.682-4.682c.394-1.019.669-2.182.744-3.882.075-1.707.094-2.251.094-6.595s-.006-4.888-.081-6.595zm-2.882 13.065c-.069 1.563-.331 2.407-.55 2.969a5.307 5.307 0 0 1-3.038 3.038c-.563.219-1.413.481-2.969.55-1.688.075-2.194.094-6.464.094s-4.782-.018-6.464-.094c-1.563-.069-2.407-.331-2.969-.55a4.926 4.926 0 0 1-1.838-1.194 4.974 4.974 0 0 1-1.194-1.838c-.219-.563-.481-1.413-.55-2.969-.075-1.688-.094-2.194-.094-6.464s.019-4.782.094-6.464c.069-1.563.331-2.407.55-2.969a4.868 4.868 0 0 1 1.2-1.838A4.974 4.974 0 0 1 6.639 3.55c.563-.219 1.413-.481 2.969-.55 1.688-.075 2.194-.094 6.464-.094 4.276 0 4.782.019 6.464.094 1.563.069 2.407.331 2.969.55a4.914 4.914 0 0 1 1.838 1.194 4.974 4.974 0 0 1 1.194 1.838c.219.563.481 1.413.55 2.969.075 1.688.094 2.194.094 6.464s-.019 4.77-.094 6.457z"/>
      <path d="M16.059 7.782c-4.538 0-8.22 3.682-8.22 8.22s3.682 8.22 8.22 8.22 8.22-3.682 8.22-8.22-3.682-8.22-8.22-8.22zm0 13.553a5.333 5.333 0 0 1 0-10.664 5.333 5.333 0 0 1 0 10.664zM26.524 7.457a1.919 1.919 0 1 1-3.838 0 1.919 1.919 0 0 1 3.838 0z"/>
    </symbol>
    <symbol id="icon-our-team-linkedin" viewBox="0 0 32 32">
      <path d="M31.992 32v-.001H32V20.263c0-5.741-1.236-10.164-7.948-10.164-3.227 0-5.392 1.771-6.276 3.449h-.093v-2.913h-6.364v21.364h6.627V21.42c0-2.785.528-5.479 3.977-5.479 3.399 0 3.449 3.179 3.449 5.657v10.401h6.62zM.528 10.636h6.635V32H.528V10.636zM3.843 0C1.722 0 0 1.721 0 3.843s1.721 3.879 3.843 3.879c2.121 0 3.843-1.757 3.843-3.879A3.846 3.846 0 0 0 3.843 0z"/>
    </symbol>
    <symbol id="icon-our-team-twitter" viewBox="0 0 32 32">
      <path d="M32 6.078c-1.19.522-2.458.868-3.78 1.036a6.523 6.523 0 0 0 2.886-3.626 13.11 13.11 0 0 1-4.16 1.588A6.574 6.574 0 0 0 22.154 3c-3.632 0-6.556 2.948-6.556 6.562 0 .52.044 1.02.152 1.496-5.454-.266-10.28-2.88-13.522-6.862a6.605 6.605 0 0 0-.898 3.316 6.57 6.57 0 0 0 2.914 5.452 6.479 6.479 0 0 1-2.964-.808v.072c0 3.188 2.274 5.836 5.256 6.446a6.548 6.548 0 0 1-1.72.216 5.8 5.8 0 0 1-1.242-.112c.85 2.598 3.262 4.508 6.13 4.57a13.182 13.182 0 0 1-8.134 2.798c-.538 0-1.054-.024-1.57-.09A18.469 18.469 0 0 0 10.064 29c12.072 0 18.672-10 18.672-18.668 0-.29-.01-.57-.024-.848A13.087 13.087 0 0 0 32 6.078z"/>
    </symbol>
    <symbol id="icon-punctuality-clock" viewBox="0 0 32 32">
      <path fill="#2e2f42" style="fill: var(--color1, #2e2f42)" d="M31.297 15.301c-0.002-8.452-6.855-15.303-15.308-15.301s-15.303 6.855-15.301 15.308c0.001 6.658 4.307 12.551 10.649 14.576 0.061 0.019 0.124 0.029 0.187 0.029 0.121-0 0.239-0.032 0.342-0.094 0.135-0.080 0.236-0.207 0.283-0.356l3.865-12.25c1.057-0.005 1.909-0.866 1.903-1.923s-0.866-1.909-1.923-1.903c-0.284 0.001-0.565 0.067-0.82 0.191l-5.106-5.107c-0.253-0.245-0.657-0.238-0.902 0.016-0.239 0.247-0.239 0.639 0 0.886l5.103 5.109c-0.392 0.799-0.168 1.764 0.536 2.309l-3.683 11.673c-7.278-2.681-11.004-10.754-8.323-18.032s10.754-11.004 18.032-8.323c7.278 2.681 11.004 10.754 8.323 18.032-1.31 3.556-4.001 6.431-7.462 7.973l-0.398-1.874c-0.073-0.345-0.411-0.565-0.756-0.492-0.109 0.023-0.209 0.074-0.293 0.148l-3.837 3.426c-0.263 0.234-0.287 0.637-0.052 0.9 0.076 0.085 0.174 0.149 0.283 0.184l4.899 1.564c0.335 0.108 0.694-0.077 0.802-0.412 0.034-0.106 0.040-0.219 0.017-0.328l-0.391-1.839c5.664-2.388 9.342-7.942 9.329-14.089zM15.992 14.664c0.352 0 0.638 0.286 0.638 0.638s-0.286 0.638-0.638 0.638c-0.352 0-0.638-0.285-0.638-0.638s0.285-0.638 0.638-0.638zM18.093 29.528l2.184-1.948 0.603 2.84-2.787-0.892z"></path>
      <path fill="#4d5ae5" style="fill: var(--color2, #4d5ae5)" d="M15.354 3.185v1.275c0 0.352 0.285 0.638 0.638 0.638s0.638-0.285 0.638-0.638v-1.275c0-0.352-0.286-0.638-0.638-0.638s-0.638 0.286-0.638 0.638z"></path>
      <path fill="#4d5ae5" style="fill: var(--color2, #4d5ae5)" d="M3.876 14.664c-0.352 0-0.638 0.286-0.638 0.638s0.285 0.638 0.638 0.638h1.275c0.352 0 0.638-0.285 0.638-0.638s-0.285-0.638-0.638-0.638h-1.275z"></path>
      <path fill="#4d5ae5" style="fill: var(--color2, #4d5ae5)" d="M28.108 15.939c0.352 0 0.638-0.285 0.638-0.638s-0.285-0.638-0.638-0.638h-1.275c-0.352 0-0.638 0.286-0.638 0.638s0.286 0.638 0.638 0.638h1.275z"></path>
    </symbol>
    <symbol id="icon-strategy-antenna" viewBox="0 0 32 32">
      <path fill="#2e2f42" style="fill: var(--color1, #2e2f42)" d="M30.773 22.098l-8.443-8.505 0.937-4.615c0.242 0.094 0.499 0.144 0.758 0.146h0.006c1.192 0.014 2.17-0.941 2.184-2.133s-0.941-2.17-2.133-2.184c-1.192-0.014-2.17 0.941-2.184 2.133-0.003 0.255 0.039 0.509 0.125 0.749l-4.96 0.605-8.091-8.133c-0.099-0.101-0.235-0.159-0.377-0.16-0.14 0.001-0.274 0.056-0.373 0.155l-1.513 1.504c-0.208 0.208-0.208 0.546 0 0.754l0.814 0.826c-3.153 5.798-2.129 12.978 2.519 17.663 0.043 0.041 0.092 0.074 0.146 0.098-0.034 0.18-0.051 0.364-0.052 0.547v6.187h-6.4c-1.472 0.002-2.665 1.195-2.667 2.667v1.067c0 0.295 0.239 0.533 0.533 0.533h24.533c0.295 0 0.533-0.239 0.533-0.533v-1.067c-0.002-1.472-1.195-2.665-2.667-2.667h-6.4v-2.742c1.003 0.21 2.024 0.317 3.049 0.32 2.458-0.003 4.877-0.615 7.040-1.783l0.818 0.823c0.099 0.101 0.235 0.159 0.377 0.16 0.14-0.001 0.274-0.056 0.373-0.155l1.513-1.504c0.208-0.208 0.208-0.546 0-0.754zM23.28 6.233c0.418-0.415 1.093-0.414 1.509 0.004s0.414 1.093-0.004 1.508c-0.2 0.199-0.47 0.31-0.752 0.31h-0.003c-0.589-0.003-1.064-0.483-1.061-1.072 0.002-0.282 0.115-0.552 0.314-0.751h-0.002zM22.024 9.738l-0.598 2.946-1.175-1.182 1.774-1.763zM21.419 8.836l-1.92 1.909-1.485-1.493 3.405-0.415zM24.004 28.8c0.884 0 1.6 0.716 1.6 1.6v0.533h-23.467v-0.533c0-0.884 0.716-1.6 1.6-1.6h20.267zM16.537 26.667v1.067h-5.333v-1.067h5.333zM11.204 25.6v-4.053c0-1.294 1.196-2.347 2.667-2.347s2.667 1.053 2.667 2.347v4.053h-5.333zM17.604 23.904v-2.357c0-1.882-1.675-3.413-3.733-3.413-1.331-0.020-2.576 0.657-3.281 1.786-4.058-4.274-4.971-10.645-2.279-15.887l18.602 18.708c-2.872 1.461-6.165 1.873-9.309 1.163zM28.893 23.22l-21.057-21.181 0.755-0.752 7.935 7.98c0.004 0 0.006 0.007 0.010 0.010l13.115 13.191-0.757 0.752z"></path>
      <path fill="#4d5ae5" style="fill: var(--color2, #4d5ae5)" d="M13.876 20.267h-0.005c-0.884-0.001-1.601 0.714-1.602 1.598s0.714 1.601 1.598 1.602h0.005c0.884 0.001 1.601-0.714 1.602-1.598s-0.714-1.601-1.598-1.602zM14.249 22.245c-0.1 0.1-0.236 0.156-0.378 0.155-0.295-0.002-0.532-0.242-0.531-0.536 0.001-0.141 0.057-0.276 0.157-0.375s0.233-0.154 0.373-0.155c0.295 0.002 0.532 0.242 0.531 0.536-0.001 0.141-0.057 0.276-0.157 0.375h0.005z"></path>
    </symbol>
    <symbol id="icon-technologies-astronaut" viewBox="0 0 32 32">
      <path fill="#4d5ae5" style="fill: var(--color2, #4d5ae5)" d="M31.974 4.524c-0.063-0.193-0.229-0.333-0.43-0.363l-1.91-0.278-0.855-1.731c-0.179-0.365-0.777-0.365-0.956 0l-0.855 1.731-1.91 0.278c-0.201 0.029-0.367 0.17-0.431 0.363-0.062 0.193-0.011 0.405 0.135 0.547l1.383 1.348-0.326 1.903c-0.034 0.2 0.048 0.402 0.212 0.522 0.166 0.121 0.382 0.135 0.562 0.040l1.709-0.899 1.709 0.899c0.078 0.041 0.164 0.061 0.249 0.061 0.11 0 0.221-0.034 0.314-0.102 0.164-0.119 0.246-0.322 0.212-0.522l-0.326-1.903 1.383-1.348c0.145-0.142 0.197-0.354 0.135-0.547zM29.511 5.851c-0.125 0.122-0.183 0.299-0.153 0.472l0.191 1.114-1-0.526c-0.078-0.041-0.163-0.061-0.249-0.061s-0.17 0.020-0.249 0.061l-1.001 0.526 0.191-1.114c0.030-0.173-0.028-0.349-0.153-0.472l-0.81-0.789 1.119-0.163c0.174-0.025 0.324-0.134 0.402-0.292l0.5-1.013 0.5 1.013c0.078 0.157 0.228 0.267 0.402 0.292l1.119 0.163-0.809 0.789z"></path>
      <path fill="#4d5ae5" style="fill: var(--color2, #4d5ae5)" d="M26.134 20.522h-1.067v1.067h1.067v-1.067z"></path>
      <path fill="#4d5ae5" style="fill: var(--color2, #4d5ae5)" d="M26.134 22.656h-1.067v1.067h1.067v-1.067z"></path>
      <path fill="#4d5ae5" style="fill: var(--color2, #4d5ae5)" d="M27.2 21.589h-1.067v1.067h1.067v-1.067z"></path>
      <path fill="#4d5ae5" style="fill: var(--color2, #4d5ae5)" d="M25.067 21.589h-1.067v1.067h1.067v-1.067z"></path>
      <path fill="#4d5ae5" style="fill: var(--color2, #4d5ae5)" d="M22.4 26.389h-1.067v1.067h1.067v-1.067z"></path>
      <path fill="#4d5ae5" style="fill: var(--color2, #4d5ae5)" d="M22.4 28.522h-1.067v1.067h1.067v-1.067z"></path>
      <path fill="#4d5ae5" style="fill: var(--color2, #4d5ae5)" d="M23.467 27.456h-1.067v1.067h1.067v-1.067z"></path>
      <path fill="#4d5ae5" style="fill: var(--color2, #4d5ae5)" d="M21.333 27.456h-1.067v1.067h1.067v-1.067z"></path>
      <path fill="#4d5ae5" style="fill: var(--color2, #4d5ae5)" d="M16 24.256h-1.067v1.067h1.067v-1.067z"></path>
      <path fill="#4d5ae5" style="fill: var(--color2, #4d5ae5)" d="M16 26.389h-1.067v1.067h1.067v-1.067z"></path>
      <path fill="#4d5ae5" style="fill: var(--color2, #4d5ae5)" d="M17.067 25.322h-1.067v1.067h1.067v-1.067z"></path>
      <path fill="#4d5ae5" style="fill: var(--color2, #4d5ae5)" d="M14.933 25.322h-1.067v1.067h1.067v-1.067z"></path>
      <path fill="#4d5ae5" style="fill: var(--color2, #4d5ae5)" d="M5.867 6.122h-1.067v1.067h1.067v-1.067z"></path>
      <path fill="#4d5ae5" style="fill: var(--color2, #4d5ae5)" d="M5.867 8.255h-1.067v1.067h1.067v-1.067z"></path>
      <path fill="#4d5ae5" style="fill: var(--color2, #4d5ae5)" d="M6.933 7.189h-1.067v1.067h1.067v-1.067z"></path>
      <path fill="#4d5ae5" style="fill: var(--color2, #4d5ae5)" d="M4.8 7.189h-1.067v1.067h1.067v-1.067z"></path>
      <path fill="#2e2f42" style="fill: var(--color1, #2e2f42)" d="M24.715 14.159c-0.287-0.388-0.709-0.637-1.188-0.705-0.481-0.068-0.956 0.058-1.34 0.352l-1.252 0.96-1.898 1.417-1.358-0.541c2.421-1.086 4.114-3.508 4.114-6.32 0-3.823-3.123-6.933-6.961-6.933s-6.961 3.11-6.961 6.933c0 1.386 0.414 2.674 1.12 3.758l-2.764-0.024c-0.002 0-0.003 0-0.005 0-0.009 0-0.015 0.004-0.023 0.005-0.053 0.002-0.105 0.013-0.155 0.031-0.013 0.005-0.026 0.008-0.038 0.013-0.006 0.003-0.013 0.003-0.019 0.006l-3.233 1.596c-0.001 0-0.001 0-0.001 0.001l-1.893 0.911c-0.021 0.009-0.042 0.021-0.063 0.035-0.755 0.502-1.012 1.489-0.598 2.295 0.22 0.429 0.595 0.745 1.056 0.889 0.178 0.055 0.359 0.083 0.539 0.083 0.29 0 0.577-0.071 0.839-0.211l1.388-0.738 2.264-1.169 1.357-0.008-5.442 5.416c-0.001 0.001-0.001 0.001-0.002 0.001l-1.339 1.333c-0.316 0.315-0.49 0.732-0.49 1.178s0.174 0.863 0.49 1.179c0.325 0.323 0.752 0.485 1.179 0.485s0.854-0.162 1.18-0.485l1.314-1.309 1.741-1.3 0.901 0.897-1.762 1.754c-0 0.001-0.001 0.001-0.002 0.001l-1.339 1.333c-0.316 0.315-0.49 0.732-0.49 1.178s0.174 0.863 0.49 1.179c0.325 0.323 0.753 0.485 1.18 0.485s0.855-0.162 1.18-0.485l3.482-3.467c0.001-0.001 0.001-0.001 0.001-0.002l1.010-1-0.004-0.004c0.006-0.006 0.015-0.009 0.022-0.015l5.166-5.658 3.471 0.494c0.025 0.004 0.050 0.005 0.075 0.005 0.065 0 0.127-0.015 0.187-0.038 0.018-0.006 0.033-0.015 0.050-0.023 0.019-0.010 0.039-0.015 0.058-0.027l3.213-2.133c0.012-0.008 0.018-0.021 0.029-0.029 0.013-0.010 0.029-0.014 0.041-0.026l1.271-1.191c0.662-0.62 0.753-1.635 0.212-2.362zM2.13 17.77c-0.173 0.093-0.37 0.111-0.558 0.052-0.187-0.058-0.338-0.186-0.427-0.358-0.161-0.314-0.068-0.695 0.214-0.902l1.314-0.632 0.449 1.313-0.992 0.527zM5.628 15.942l-1.548 0.8-0.439-1.283 2.027-1.001-0.040 1.484zM20.727 9.322c0 0.918-0.219 1.785-0.599 2.559l-4.181-1.899c-0.044-0.573-0.341-1.075-0.788-1.388l1.464-4.86c2.378 0.756 4.105 2.974 4.105 5.588zM8.938 9.322c0-3.235 2.644-5.867 5.894-5.867 0.253 0 0.5 0.021 0.745 0.052l-1.432 4.754c-0.019-0.001-0.037-0.006-0.057-0.006-1.033 0-1.873 0.837-1.873 1.867s0.84 1.867 1.873 1.867c0.694 0 1.294-0.383 1.618-0.945l3.862 1.755c-1.075 1.446-2.795 2.39-4.737 2.39-3.25 0-5.894-2.632-5.894-5.867zM14.894 10.122c0 0.441-0.362 0.8-0.806 0.8s-0.806-0.359-0.806-0.8c0-0.441 0.362-0.8 0.806-0.8s0.806 0.359 0.806 0.8zM2.465 25.146c-0.236 0.234-0.619 0.234-0.854 0.001-0.114-0.114-0.176-0.263-0.176-0.423s0.062-0.309 0.176-0.421l0.962-0.958 0.851 0.848-0.959 0.955zM5.679 28.88c-0.236 0.234-0.619 0.235-0.855 0.001-0.114-0.114-0.176-0.263-0.176-0.423s0.062-0.309 0.176-0.421l0.963-0.959 0.852 0.848-0.96 0.955zM9.16 25.411c-0.001 0-0.001 0-0.002 0.001l-1.765 1.76-0.852-0.848 1.763-1.755c0 0 0 0 0-0s0.001-0.001 0.002-0.001c0.040-0.040 0.065-0.088 0.090-0.135 0.007-0.014 0.020-0.026 0.026-0.040 0.017-0.041 0.019-0.085 0.026-0.129 0.003-0.025 0.014-0.047 0.014-0.073 0-0.036-0.013-0.070-0.020-0.106-0.006-0.032-0.006-0.065-0.019-0.095-0.020-0.050-0.055-0.094-0.091-0.138-0.010-0.012-0.014-0.027-0.025-0.038 0 0 0 0-0.001 0s-0.001-0.002-0.001-0.002l-1.607-1.6c-0.017-0.017-0.039-0.024-0.058-0.038-0.028-0.022-0.055-0.042-0.087-0.058-0.030-0.015-0.061-0.024-0.093-0.033-0.034-0.010-0.067-0.017-0.103-0.020-0.033-0.002-0.063 0.001-0.095 0.005-0.036 0.004-0.069 0.009-0.104 0.020-0.034 0.011-0.063 0.027-0.094 0.045-0.020 0.011-0.042 0.015-0.061 0.029l-1.773 1.324-0.901-0.897 2.399-2.386 4.361 4.289-0.928 0.919zM15.979 18.394c-0.015-0.002-0.030 0.004-0.045 0.003-0.039-0.002-0.076 0.001-0.115 0.007-0.030 0.005-0.059 0.011-0.088 0.021-0.034 0.012-0.065 0.028-0.097 0.047-0.030 0.018-0.057 0.037-0.083 0.061-0.013 0.011-0.028 0.017-0.040 0.029l-4.698 5.146-4.328-4.257 2.833-2.818c0.209-0.208 0.21-0.546 0.002-0.755-0.105-0.105-0.243-0.157-0.381-0.156v-0.001l-2.219 0.013 0.028-1.607 3.104 0.027c1.265 1.294 3.029 2.101 4.981 2.101 0.437 0 0.864-0.045 1.279-0.123 0.040 0.032 0.079 0.065 0.13 0.085l2.41 0.96 0.152 0.758 0.178 0.885-3.003-0.427zM20.020 18.572l-0.313-1.558 1.446-1.080 0.947 1.257-2.080 1.381zM23.774 15.741l-0.838 0.785-0.931-1.236 0.831-0.637c0.155-0.119 0.351-0.168 0.543-0.143 0.193 0.027 0.364 0.128 0.48 0.284 0.217 0.292 0.18 0.699-0.085 0.947z"></path>
      <path fill="#2e2f42" style="fill: var(--color1, #2e2f42)" d="M13.602 18.544l-2.143-2.133c-0.207-0.207-0.545-0.207-0.753 0l-2.142 2.133c-0.1 0.101-0.157 0.236-0.157 0.378s0.056 0.278 0.157 0.378l2.142 2.133c0.104 0.103 0.241 0.155 0.377 0.155s0.273-0.052 0.376-0.155l2.143-2.133c0.1-0.1 0.157-0.236 0.157-0.378s-0.057-0.278-0.157-0.378zM11.083 20.303l-1.387-1.381 1.387-1.381 1.387 1.381-1.387 1.381z"></path>
      <path fill="#2e2f42" style="fill: var(--color1, #2e2f42)" d="M17.164 5.071l-0.258 1.036c0.071 0.018 1.738 0.452 1.738 2.149h1.067c-0-2.017-1.666-2.965-2.547-3.185z"></path>
      <path fill="#2e2f42" style="fill: var(--color1, #2e2f42)" d="M19.711 9.322h-1.067v1.067h1.067v-1.067z"></path>
    </symbol>
  </defs>
</svg>
